# xmcd
#
# Track frame offsets:
#	150
#	22627
#	37681
#	55226
#	67628
#	82597
#	109452
#	128488
#	146704
#	180830
#	189258
#	204252
#	219488
#	232187
#	255528
#
# Disc length: 3689 seconds
#
# Revision: 1
# Processed by: cddbd v1.5.2PL0 Copyright (c) Steve Scherf et al.
# Submitted via: EasyCDDAExtractor 16.0.6.1
#
DISCID=b20e670f
DTITLE=Η λεβεντιά της Κρήτης 3
DYEAR=2013
DGENRE=Κρητική
TTITLE0=Γαργανουράκης Χαράλαμπος - Ξεπετασάρικο πουλί [μ. κ στ. ιδίου]
TTITLE1=Μανιάς Νίκος - Μ' έκανες και σ' αγάπησα [Βαγγ. Μαρκογιαννάκης-Νίκος Μα
TTITLE1=νιάς]
TTITLE2=Σταματογιαννάκης Γεράσιμος - Αχί ντουμάνια και φωτιές [μ. κ στ. ιδίου]
TTITLE3=Γαργανουράκης Χαράλαμπος - Έφυγες κάποιο δειλινό [μ. κ στ. ιδίου]
TTITLE4=Ξυλούρη Νίκη-Ψαραντώνης - Μάννα λούγε με-Φυσά βοριάς [ριζίτικο, μ. κ σ
TTITLE4=τ. ιδίου]
TTITLE5=Καλομοίρης Γιώργης - Η πρώτη αγάπη-Ε Θε μου [μ. κ στ. ιδίου]
TTITLE6=Μανουράς Μανώλης - Ανωγειανές κοντυλιές [παραδοσιακό]
TTITLE7=Μανιάς Νίκος - Όταν σε δω, κερά μου [μ. κ στ. ιδίου]
TTITLE8=Ψαραντώνης - Κοντυλιές 1975-80 [Ω την παντέρμη, Κρουλάκια]
TTITLE9=Μουντάκης Κώστας - Ο πραματευτής [μ. κ στ. ιδίου]
TTITLE10=Λαγός Μανώλης - Σφακιανός συρτός [μ. κ στ. ιδίου]
TTITLE11=Μπερνιδάκης Γιάννης - Συρτό της νύχτας [μ. κ στ. Στέλιος Φουσταλιέρης
TTITLE11=]
TTITLE12=Σκορδαλός Θανάσης - Όλοι μου λένε γιάϊντα κλαίς [μ. κ στ. ιδίου]
TTITLE13=Σηφογιωργάκης Σπύρος - Σούστα [παραδοσιακό]
TTITLE14=Σκουλάς Σπύρος-χορωδία - Πότε θα κάνει ξαστεριά [παραδοσιακό]
EXTD=
EXTT0=
EXTT1=
EXTT2=
EXTT3=
EXTT4=
EXTT5=
EXTT6=
EXTT7=
EXTT8=
EXTT9=
EXTT10=
EXTT11=
EXTT12=
EXTT13=
EXTT14=
PLAYORDER=
